<svg id="Component_2_1" data-name="Component 2 – 1" xmlns="http://www.w3.org/2000/svg" width="29.5" height="23.925" viewBox="0 0 29.5 23.925">
  <path id="Path_1" data-name="Path 1" d="M27.3,20.858H8.829a.929.929,0,1,1,0-1.858H27.18a1,1,0,0,1,.929.929A.823.823,0,0,1,27.3,20.858Z" transform="translate(1.275 3.067)" fill="#fcb415"/>
  <path id="Path_2" data-name="Path 2" d="M28.571,14.558H.929a.929.929,0,0,1,0-1.858H28.571a.929.929,0,0,1,0,1.858Z" transform="translate(0 2.05)" fill="#fcb415"/>
  <path id="Path_3" data-name="Path 3" d="M28.571,1.858H.929A1,1,0,0,1,0,.929,1,1,0,0,1,.929,0H28.571A1,1,0,0,1,29.5.929,1,1,0,0,1,28.571,1.858Z" fill="#fcb415"/>
  <path id="Path_4" data-name="Path 4" d="M27.3,8.158H8.829A1,1,0,0,1,7.9,7.229,1,1,0,0,1,8.829,6.3H27.18a1,1,0,0,1,.929.929A.773.773,0,0,1,27.3,8.158Z" transform="translate(1.275 1.017)" fill="#fcb415"/>
</svg>
